<?xml version="1.0" encoding="utf-8"?>
<!-- Generator: Adobe Illustrator 16.0.0, SVG Export Plug-In . SVG Version: 6.00 Build 0)  -->
<!DOCTYPE svg PUBLIC "-//W3C//DTD SVG 1.1//EN" "http://www.w3.org/Graphics/SVG/1.1/DTD/svg11.dtd">
<svg version="1.1" id="Calque_1" xmlns="http://www.w3.org/2000/svg" xmlns:xlink="http://www.w3.org/1999/xlink" x="0px" y="0px"
	 width="30.512px" height="30.371px" viewBox="0 0 30.512 30.371" enable-background="new 0 0 30.512 30.371" xml:space="preserve">
<rect x="12.189" y="4.444" fill="#FFFFFF" width="14.02" height="24.751"/>
<g>
	<path fill="#3B5998" d="M30.512,5.028c0,6.687,0,13.372,0,20.057c-0.084,0.018-0.063,0.096-0.073,0.146
		c-0.112,0.572-0.312,1.113-0.632,1.605c-0.977,1.5-2.329,2.35-4.146,2.363c-1.555,0.012-3.108-0.002-4.662,0.008
		c-0.191,0.002-0.247-0.035-0.247-0.24c0.009-3.402,0.009-6.805,0-10.207c-0.001-0.229,0.067-0.266,0.276-0.264
		c1.41,0.01,2.821,0.006,4.232,0.006c0.112,0,0.22,0.025,0.219-0.16c-0.006-1.471-0.005-2.942,0-4.415
		c0-0.138-0.057-0.16-0.176-0.158c-0.286,0.006-0.573,0.002-0.86,0.002c-1.16,0-2.322,0-3.484-0.002
		c-0.084,0-0.206,0.053-0.204-0.121c0.011-0.664-0.013-1.328,0.028-1.99c0.041-0.682,0.46-1.032,1.146-1.032
		c1.109,0,2.218-0.003,3.326,0.003c0.179,0.001,0.226-0.05,0.225-0.229c-0.007-1.426-0.008-2.853,0.001-4.278
		c0.001-0.197-0.063-0.229-0.24-0.229c-1.154,0.008-2.31,0.006-3.465,0.004c-1.031-0.002-1.973,0.285-2.816,0.883
		c-1.43,1.014-2.226,2.42-2.531,4.121c-0.159,0.881-0.071,1.775-0.082,2.666c-0.002,0.166-0.039,0.211-0.209,0.209
		c-1.011-0.008-2.021,0.002-3.033-0.008c-0.192-0.002-0.235,0.057-0.234,0.24c0.007,1.418,0.007,2.836,0,4.254
		c-0.001,0.184,0.042,0.244,0.234,0.244c1.003-0.01,2.007,0,3.012-0.01c0.188-0.002,0.23,0.045,0.23,0.232
		c-0.007,3.416-0.007,6.836,0.001,10.252c0,0.197-0.059,0.227-0.238,0.227c-3.024-0.008-6.05-0.004-9.075-0.006
		c-0.188,0-0.379,0.004-0.565-0.02c-2.421-0.289-4.297-2.402-4.297-4.842C2.17,18.142,2.185,11.94,2.163,5.737
		C2.155,3.548,3.765,1.54,5.81,1.009c0.176-0.045,0.371-0.03,0.525-0.148c6.655,0,13.311,0,19.966,0
		c0.023,0.071,0.087,0.042,0.134,0.052c2.029,0.434,3.339,1.646,3.938,3.633C30.422,4.708,30.402,4.888,30.512,5.028z"/>
</g>
</svg>
