<?xml version="1.0" encoding="utf-8"?>
<!-- Generator: Adobe Illustrator 16.0.0, SVG Export Plug-In . SVG Version: 6.00 Build 0)  -->
<!DOCTYPE svg PUBLIC "-//W3C//DTD SVG 1.1//EN" "http://www.w3.org/Graphics/SVG/1.1/DTD/svg11.dtd">
<svg version="1.1" id="Calque_1" xmlns="http://www.w3.org/2000/svg" xmlns:xlink="http://www.w3.org/1999/xlink" x="0px" y="0px"
	 width="74.357px" height="42.531px" viewBox="14.963 16.351 74.357 42.531" enable-background="new 14.963 16.351 74.357 42.531"
	 xml:space="preserve">
<g>
	<path fill="#FFFFFF" d="M71.487,50.947c-0.413-1.027-0.792-2.075-1.271-3.074c-1.187-2.471-2.364-4.948-3.656-7.366
		c-0.954-1.79-2.003-3.544-3.551-4.923c-0.082-0.073-0.136-0.195-0.167-0.305c-0.132-0.483-0.25-0.969-0.373-1.455
		c0.021-0.056,0.059-0.109,0.06-0.165c0.014-0.671,0.295-1.208,0.721-1.721c0.59-0.712,0.935-1.537,0.521-2.461
		c-0.625-1.395-1.427-2.689-2.35-3.912c-0.268-0.353-0.572-0.38-0.975-0.301c0.063,0.192,0.129,0.356,0.167,0.527
		c0.158,0.736,0.315,1.473,0.457,2.212c0.053,0.273-0.098,0.466-0.316,0.625c-0.639,0.463-1.628,0.5-2.279,0.073
		c-0.273-0.18-0.458-0.414-0.409-0.764c0.05-0.363,0.092-0.728,0.173-1.083c0.122-0.536,0.274-1.063,0.413-1.59
		c-0.434-0.118-0.757-0.017-0.989,0.359c-0.679,1.093-1.373,2.177-2.043,3.275c-0.527,0.868-0.582,1.757-0.023,2.639
		c0.138,0.219,0.325,0.406,0.459,0.626c0.166,0.267,0.352,0.539,0.439,0.834c0.203,0.678,0.117,1.366-0.111,2.021
		c-0.096,0.274-0.301,0.516-0.483,0.75c-0.52,0.667-1.053,1.321-1.582,1.982c-0.1,0.111-0.215,0.213-0.292,0.34
		c-0.465,0.755-0.963,1.493-1.371,2.276c-1.066,2.039-2.094,4.1-3.132,6.152c-0.055,0.112-0.064,0.243-0.095,0.363
		c-0.091,0.138-0.207,0.267-0.271,0.413c-0.477,1.105-0.946,2.218-1.414,3.329c-0.392,0.929-0.39,1.012,0.623,1.219
		c1.236,0.251,2.49,0.468,3.746,0.559c1.637,0.118,3.286,0.127,4.93,0.13c2.828,0.01,5.658,0.025,8.484-0.054
		c1.448-0.043,2.893-0.266,4.335-0.439c0.438-0.054,0.872-0.192,1.294-0.34C71.668,51.521,71.689,51.452,71.487,50.947z
		 M60.771,35.523c-0.446-0.027-0.894-0.053-1.451-0.087c0.21,0.398,0.372,0.705,0.534,1.011c0.008,0.168-0.008,0.342,0.028,0.504
		c0.223,0.984,0.216,1.964-0.053,2.94c-0.022,0.085-0.06,0.167-0.09,0.249c-0.127-0.27-0.184-0.621-0.385-0.749
		c-0.161-0.103-0.495,0.064-0.803,0.122c-0.003-0.058-0.024-0.186-0.014-0.312c0.046-0.537,0.102-1.073,0.154-1.61
		c0.196-0.692,0.143-1.389,0.058-2.083c-0.265-0.125-0.34,0.053-0.368,0.229c-0.118,0.743-0.225,1.484-0.324,2.227
		c-0.01,0.059,0.056,0.126,0.086,0.19c-0.036,0.155-0.108,0.313-0.103,0.466c0.037,0.956,0.097,1.911,0.136,2.866
		c0.011,0.256,0.002,0.52-0.039,0.771c-0.042,0.258-0.152,0.467-0.486,0.443c-0.943-0.064-1.194,0.087-1.651,1.039
		c-0.08-0.467-0.18-0.836-0.2-1.212c-0.037-0.599-0.018-1.199-0.029-1.802c0-0.052-0.025-0.105-0.039-0.157
		c0.068-0.402,0.136-0.805,0.203-1.208c0.113-0.33,0.202-0.67,0.345-0.987c0.383-0.86,0.788-1.708,1.188-2.561
		c0.048-0.103,0.111-0.2,0.195-0.342c-0.219,0-0.389,0-0.558,0c0.109-0.65,0.216-1.267,0.322-1.918c1.412,0,2.856,0,4.285,0
		c0.067,0.285,0.133,0.559,0.197,0.833c0.021,0.214,0.037,0.43,0.066,0.641c0.015,0.126,0.052,0.25,0.084,0.403
		C61.618,35.46,61.194,35.492,60.771,35.523z"/>
	<path fill="#FFFFFF" d="M45.269,35.518c-0.177-1.571-0.231-3.158-0.695-4.691c-0.395-1.309-0.695-2.647-1.071-3.964
		c-0.054-0.192-0.272-0.37-0.456-0.486c-0.577-0.364-1.251-0.301-1.894-0.353c-0.092-0.009-0.258,0.143-0.292,0.251
		c-0.663,2.057-1.311,4.117-1.964,6.177c-0.033,0.103-0.083,0.201-0.153,0.376c-0.071-0.19-0.115-0.296-0.151-0.405
		c-0.694-2.035-1.39-4.068-2.072-6.107c-0.083-0.253-0.207-0.339-0.458-0.304c-0.433,0.059-0.872,0.079-1.302,0.16
		c-0.568,0.107-0.933,0.425-1.073,1.031c-0.264,1.15-0.589,2.287-0.873,3.434c-0.162,0.653-0.351,1.307-0.432,1.971
		c-0.19,1.561-0.324,3.129-0.479,4.695c-0.076,0.761-0.15,1.521-0.228,2.31c0.729,0.032,1.425,0.057,2.119,0.102
		c0.26,0.018,0.314-0.095,0.334-0.324c0.14-1.601,0.29-3.201,0.442-4.801c0.035-0.37,0.09-0.737,0.135-1.105
		c0.057,1.957,0.058,3.907,0.055,5.858c0,0.362,0,0.713,0.371,0.933c0.057,0.035,0.078,0.162,0.084,0.249
		c0.094,1.369,0.182,2.738,0.271,4.108c0.151,2.323,0.302,4.647,0.455,6.975c0.025,0.384,0.062,0.768,0.092,1.147
		c0.735,0,1.427,0,2.148,0c0.151-3.579,0.303-7.133,0.453-10.688c0.079,0.115,0.1,0.229,0.105,0.346
		c0.08,2.082,0.157,4.162,0.236,6.244c0.049,1.277,0.098,2.555,0.162,3.831c0.006,0.1,0.128,0.276,0.201,0.279
		c0.648,0.022,1.297,0.011,1.998,0.011c0.02-0.468,0.029-0.915,0.059-1.357c0.155-2.373,0.316-4.745,0.477-7.117
		c0.083-1.238,0.167-2.479,0.258-3.717c0.009-0.105,0.047-0.263,0.12-0.302c0.355-0.191,0.388-0.508,0.388-0.85
		c0-1.633,0-3.267,0-4.902c0-0.149,0-0.297,0-0.447c0.025,0,0.05,0,0.075,0c0.183,1.864,0.365,3.729,0.553,5.637
		c0.802-0.038,1.576-0.074,2.374-0.112c-0.007-0.175-0.007-0.317-0.021-0.457C45.505,37.944,45.406,36.729,45.269,35.518z
		 M38.681,34.311c0.268-0.001,0.36,0.183,0.386,0.419c-0.028,0.249-0.156,0.392-0.417,0.379c-0.233-0.01-0.388-0.138-0.388-0.373
		C38.26,34.476,38.411,34.313,38.681,34.311z M39.06,36.45c0,0.248-0.136,0.392-0.514,0.412c-0.072-0.101-0.25-0.244-0.274-0.41
		c-0.037-0.25,0.146-0.423,0.409-0.423C38.937,36.03,39.06,36.209,39.06,36.45z M38.692,38.641c-0.253,0.049-0.43-0.135-0.432-0.398
		c-0.001-0.239,0.144-0.407,0.394-0.417c0.255-0.01,0.383,0.146,0.476,0.473C38.985,38.419,38.854,38.609,38.692,38.641z"/>
	<path fill="#FFFFFF" d="M37.257,26.362c0.014,0.341,0.14,0.417,0.449,0.27c0.074-0.037,0.146-0.077,0.214-0.124
		c0.491-0.33,0.984-0.303,1.481-0.014c0.112,0.064,0.226,0.129,0.345,0.176c0.204,0.078,0.33-0.007,0.337-0.219
		c0.013-0.318,0.015-0.636,0-0.955c-0.008-0.198-0.131-0.336-0.329-0.233c-0.387,0.202-0.741,0.476-1.222,0.344
		c-0.153-0.042-0.319-0.035-0.471-0.082c-0.235-0.073-0.464-0.171-0.695-0.258c-0.053,0.23-0.106,0.461-0.159,0.693
		c0.015,0.003,0.032,0.007,0.048,0.011C37.256,26.103,37.251,26.233,37.257,26.362z"/>
</g>
</svg>
