<?xml version="1.0" encoding="utf-8"?>
<!-- Generator: Adobe Illustrator 16.0.0, SVG Export Plug-In . SVG Version: 6.00 Build 0)  -->
<!DOCTYPE svg PUBLIC "-//W3C//DTD SVG 1.1//EN" "http://www.w3.org/Graphics/SVG/1.1/DTD/svg11.dtd">
<svg version="1.1" id="Calque_1" xmlns="http://www.w3.org/2000/svg" xmlns:xlink="http://www.w3.org/1999/xlink" x="0px" y="0px"
	 width="26.555px" height="20.75px" viewBox="0 9.37 26.555 20.75" enable-background="new 0 9.37 26.555 20.75"
	 xml:space="preserve">
<g>
	<path fill-rule="evenodd" clip-rule="evenodd" fill="#FFFFFF" stroke="#000000" stroke-width="0.25" stroke-miterlimit="10" d="
		M8.392,28.866c-1.274-0.463-1.554-0.872-1.555-2.261c0-0.912,0.012-1.822-0.004-2.733c-0.011-0.655,0.203-1.188,0.714-1.613
		c0.104-0.087,0.153-0.298,0.147-0.45c-0.088-2.417,0.779-4.37,2.879-5.634c2.974-1.788,6.836-0.267,7.928,3.127
		c0.254,0.791,0.232,1.668,0.356,2.503c0.027,0.179,0.09,0.396,0.215,0.513c0.406,0.378,0.64,0.819,0.642,1.374
		c0.003,1.121,0.014,2.241-0.003,3.361c-0.015,0.936-0.434,1.406-1.551,1.813C14.906,28.866,11.649,28.866,8.392,28.866z
		 M13.256,22.607c1.635,0.009,2.96-1.211,2.958-2.723c-0.002-1.496-1.302-2.711-2.914-2.723c-1.629-0.012-2.957,1.211-2.959,2.724
		C10.34,21.381,11.644,22.599,13.256,22.607z"/>
	<path fill-rule="evenodd" clip-rule="evenodd" fill="#FFFFFF" stroke="#000000" stroke-width="0.25" stroke-miterlimit="10" d="
		M25.512,19.006c-0.355,0.952-0.355,0.952-1.418,0.952c-1.463,0-2.927-0.009-4.39,0.008c-0.306,0.004-0.453-0.095-0.553-0.38
		c-0.375-1.077-0.121-2.021,0.574-2.877c-2.381-2.097-9.672-2.121-12.825-0.086c0.214,0.528,0.438,1.038,0.623,1.562
		c0.066,0.189,0.061,0.414,0.048,0.619c-0.064,0.997-0.237,1.155-1.217,1.155c-1.448,0-2.897,0-4.345,0
		c-0.699,0-0.698,0-0.872-0.665c-0.025-0.097-0.064-0.191-0.097-0.287c0-0.239,0-0.478,0-0.717c0.272-1.212,0.978-2.045,2.154-2.473
		c0.094-0.034,0.172-0.116,0.255-0.179c1.925-1.477,4.083-2.441,6.461-2.901c0.83-0.161,1.676-0.244,2.514-0.362
		c0.568,0,1.136,0,1.703,0c0.131,0.025,0.26,0.065,0.392,0.074c2.573,0.17,4.972,0.902,7.179,2.238
		c0.572,0.346,1.065,0.853,1.668,1.114c1.146,0.495,1.873,1.279,2.146,2.491C25.512,18.528,25.512,18.767,25.512,19.006z"/>
</g>
</svg>
