<?xml version="1.0" encoding="utf-8"?>
<!-- Generator: Adobe Illustrator 16.0.0, SVG Export Plug-In . SVG Version: 6.00 Build 0)  -->
<!DOCTYPE svg PUBLIC "-//W3C//DTD SVG 1.1//EN" "http://www.w3.org/Graphics/SVG/1.1/DTD/svg11.dtd">
<svg version="1.1" id="Calque_1" xmlns="http://www.w3.org/2000/svg" xmlns:xlink="http://www.w3.org/1999/xlink" x="0px" y="0px"
	 width="26.554px" height="41.24px" viewBox="3.643 7.431 26.554 41.24" enable-background="new 3.643 7.431 26.554 41.24"
	 xml:space="preserve">
<g>
	<path fill="#484848" d="M29.179,27.96c-0.006,0.929-0.01,1.862-0.012,2.792c-0.009,0.357-0.014,0.717-0.021,1.073
		c0,3.733-0.002,7.467-0.004,11.201c-0.003,3.184-1.877,5.079-5.049,5.084c-4.785,0.009-9.568,0.009-14.354,0.002
		c-3.036-0.003-4.954-1.936-4.962-4.982c-0.009-3.766-0.013-7.529-0.02-11.295c-0.003-0.301-0.008-0.602-0.012-0.904
		c0.009-5.705,0.022-11.412,0.028-17.119c0.005-3.434,1.821-5.259,5.246-5.261c4.659,0,9.318-0.003,13.978,0
		c3.29,0,5.141,1.868,5.143,5.174c0.003,4.381,0.01,8.762,0.014,13.143C29.164,27.232,29.17,27.596,29.179,27.96z M27.585,28.39
		c0.002,0,0.003,0,0.003,0c0-3.546-0.021-7.095,0.02-10.642c0.012-0.813-0.227-1.027-1.036-1.023
		c-6.42,0.033-12.839,0.03-19.258,0.001c-0.75-0.002-0.997,0.174-0.993,0.958c0.027,7.094,0.024,14.187-0.003,21.282
		c-0.002,0.756,0.2,0.979,0.978,0.976c6.419-0.033,12.838-0.038,19.259,0.005c0.896,0.008,1.056-0.297,1.047-1.096
		C27.566,35.364,27.585,31.878,27.585,28.39z M17.028,41.465c-2.87,0-5.739,0-8.61,0c-2.195,0-2.195,0-2.057,2.224
		c0.099,1.595,1.258,2.77,2.848,2.84c0.863,0.039,1.728,0.016,2.592,0.016c4.134,0,8.271,0.006,12.407,0
		c2.188-0.003,3.349-1.17,3.369-3.372c0.002-0.308-0.04-0.623,0.007-0.922c0.101-0.688-0.219-0.804-0.834-0.798
		C23.506,41.481,20.267,41.465,17.028,41.465z M16.901,15.202c2.963,0,5.926,0,8.886,0c1.824,0,1.824,0,1.784-1.86
		c-0.045-2.042-1.202-3.201-3.238-3.213c-2.313-0.012-4.629-0.003-6.943-0.003c-2.592,0-5.186-0.008-7.777,0.002
		c-2.082,0.01-3.239,1.183-3.264,3.279c-0.003,0.276,0.033,0.56-0.007,0.833c-0.112,0.743,0.133,0.994,0.93,0.983
		C10.483,15.173,13.693,15.202,16.901,15.202z"/>
	<path fill="#F5F5F5" d="M27.585,28.39c0,3.488-0.02,6.974,0.015,10.459c0.009,0.798-0.152,1.103-1.047,1.097
		c-6.419-0.045-12.838-0.039-19.259-0.005c-0.779,0.002-0.98-0.222-0.977-0.976c0.027-7.096,0.029-14.188,0.001-21.283
		c-0.003-0.784,0.243-0.96,0.992-0.957c6.42,0.03,12.84,0.032,19.259,0c0.812-0.005,1.048,0.211,1.037,1.024
		c-0.041,3.546-0.018,7.095-0.018,10.641C27.588,28.39,27.587,28.39,27.585,28.39z"/>
	<path fill="#F5F5F5" d="M17.028,41.465c3.241,0,6.48,0.016,9.72-0.015c0.616-0.004,0.937,0.108,0.833,0.798
		c-0.044,0.301-0.004,0.615-0.007,0.923c-0.02,2.203-1.183,3.369-3.368,3.371c-4.136,0.005-8.271,0.002-12.406,0.002
		c-0.864-0.002-1.73,0.02-2.591-0.017c-1.592-0.07-2.752-1.247-2.849-2.84c-0.138-2.225-0.138-2.225,2.057-2.225
		C11.289,41.465,14.158,41.465,17.028,41.465z M18.464,44.041c0.018-0.856-0.633-1.55-1.473-1.571
		c-0.834-0.021-1.523,0.65-1.538,1.503c-0.013,0.854,0.641,1.547,1.477,1.57C17.762,45.564,18.448,44.891,18.464,44.041z"/>
	<path fill="#F5F5F5" d="M16.901,15.202c-3.21,0-6.418-0.029-9.627,0.021c-0.798,0.011-1.043-0.239-0.932-0.983
		c0.039-0.271,0.005-0.556,0.007-0.833c0.025-2.096,1.182-3.269,3.265-3.279c2.593-0.011,5.186-0.002,7.776-0.002
		c2.314,0,4.63-0.009,6.944,0.003c2.036,0.012,3.195,1.17,3.238,3.212c0.042,1.86,0.042,1.86-1.783,1.86
		C22.828,15.202,19.865,15.202,16.901,15.202z M16.913,13.439c0.679,0,1.356,0.018,2.032-0.006c0.475-0.016,0.85-0.21,0.842-0.767
		c-0.009-0.54-0.362-0.773-0.84-0.78c-1.325-0.021-2.649-0.019-3.973-0.002c-0.484,0.007-0.829,0.243-0.84,0.78
		c-0.01,0.558,0.365,0.753,0.839,0.773C15.619,13.459,16.266,13.441,16.913,13.439z"/>
	<path fill="#6A87FF" d="M18.464,44.041c-0.016,0.851-0.702,1.521-1.534,1.501c-0.837-0.021-1.49-0.718-1.477-1.571
		c0.015-0.854,0.704-1.526,1.538-1.504C17.831,42.491,18.482,43.184,18.464,44.041z"/>
	<path fill="#484848" d="M16.913,13.439c-0.646,0.001-1.292,0.021-1.939-0.006c-0.473-0.019-0.849-0.213-0.838-0.771
		c0.008-0.537,0.353-0.774,0.839-0.78c1.324-0.018,2.649-0.02,3.973,0c0.479,0.009,0.833,0.243,0.841,0.781
		c0.007,0.557-0.368,0.751-0.841,0.768C18.268,13.458,17.59,13.439,16.913,13.439z"/>
</g>
</svg>
